<?xml version="1.0" encoding="utf-8"?>
<!-- Generator: Adobe Illustrator 19.0.1, SVG Export Plug-In . SVG Version: 6.00 Build 0)  -->
<svg version="1.1" id="Layer_1" xmlns="http://www.w3.org/2000/svg" xmlns:xlink="http://www.w3.org/1999/xlink" x="0px" y="0px"
	 viewBox="0 0 39.7 30" style="enable-background:new 0 0 39.7 30;" xml:space="preserve">
<style type="text/css">
	.st0{opacity:0.9;}
	.st1{opacity:0.4;}
</style>
<g class="st0">
	<g>
		<path d="M24.7,20c-0.1,0-0.1,0-0.2,0c-0.2-0.1-0.3-0.3-0.3-0.5V16h-0.5c-1.7,0-3.4-0.6-4.8-1.6c-0.2-0.2-0.3-0.5-0.1-0.7
			c0.2-0.2,0.5-0.3,0.7-0.1c1.2,0.9,2.7,1.4,4.2,1.4h1c0.3,0,0.5,0.2,0.5,0.5v2.8l3.1-3.1c0.1-0.1,0.2-0.1,0.4-0.1h3
			c3.9,0,7-3.1,7-7s-3.1-7-7-7h-8c-3.9,0-7,3.1-7,7c0,0.2,0,0.3,0,0.5c0,0.3-0.2,0.5-0.5,0.5c-0.3,0-0.5-0.2-0.5-0.5
			c0-0.2,0-0.4,0-0.5c0-4.4,3.6-8,8-8h8c4.4,0,8,3.6,8,8s-3.6,8-8,8h-2.8l-3.9,3.9C25,19.9,24.8,20,24.7,20z"/>
	</g>
	<path d="M14.5,30h-10C4.2,30,4,29.8,4,29.5V24c-2.7-1.7-4-4.4-4-8C0,10.4,4.4,6,10,6c4.7,0,9.6,3.1,9.6,8.4c0,0.2,0.4,0.9,0.7,1.5
		c0.7,1.2,1.5,2.6,1.4,3.7l0,0.1c0,0.2,0,0.5-0.2,0.7c-0.2,0.3-0.6,0.5-1,0.5c-0.3,0-0.7,0-1,0c0,1.2-0.1,3.7-1,4.5
		c-0.8,0.8-1.8,1-3.6,1v3C15,29.8,14.8,30,14.5,30z M5,29h9v-3c0-0.1,0.1-0.3,0.1-0.4s0.2-0.2,0.4-0.1c2,0,2.8-0.2,3.4-0.7
		c0.5-0.5,0.7-2.8,0.7-4.3c0-0.1,0.1-0.3,0.1-0.4c0.1-0.1,0.2-0.2,0.4-0.1c0,0,0.8,0,1.5,0c0.1,0,0.1,0,0.2-0.1c0,0,0-0.1,0-0.2
		c0-0.1,0-0.1,0-0.2c0.1-0.8-0.7-2.2-1.3-3.2c-0.5-1-0.9-1.5-0.9-1.9C18.6,9.8,14.2,7,10,7c-5,0-9,4-9,9.1c0,3.3,1.3,5.8,3.8,7.2
		C4.9,23.4,5,23.6,5,23.7V29z"/>
	<g>
		<path d="M29.2,5.5h-6.5c-0.3,0-0.5-0.2-0.5-0.5s0.2-0.5,0.5-0.5h6.5c0.3,0,0.5,0.2,0.5,0.5S29.5,5.5,29.2,5.5z"/>
		<path d="M32.2,8.5h-9.5c-0.3,0-0.5-0.2-0.5-0.5s0.2-0.5,0.5-0.5h9.5c0.3,0,0.5,0.2,0.5,0.5S32.5,8.5,32.2,8.5z"/>
		<path d="M32.2,11.5h-9.5c-0.3,0-0.5-0.2-0.5-0.5s0.2-0.5,0.5-0.5h9.5c0.3,0,0.5,0.2,0.5,0.5S32.5,11.5,32.2,11.5z"/>
	</g>
</g>
<path class="st1" d="M14.5,30h-10C4.2,30,4,29.8,4,29.5V24c-2.7-1.7-4-4.4-4-8C0,10.4,4.4,6,10,6c4.7,0,9.6,3.1,9.6,8.4
	c0,0.2,0.4,0.9,0.7,1.5c0.7,1.2,1.5,2.6,1.4,3.7l0,0.1c0,0.2,0,0.5-0.2,0.7c-0.2,0.3-0.6,0.5-1,0.5c-0.3,0-0.7,0-1,0
	c0,1.2-0.1,3.7-1,4.5c-0.8,0.8-1.8,1-3.6,1v3C15,29.8,14.8,30,14.5,30z"/>
</svg>
