<?xml version="1.0" encoding="utf-8"?>
<!-- Generator: Adobe Illustrator 19.0.1, SVG Export Plug-In . SVG Version: 6.00 Build 0)  -->
<svg version="1.1" id="Capa_1" xmlns="http://www.w3.org/2000/svg" xmlns:xlink="http://www.w3.org/1999/xlink" x="0px" y="0px"
	 viewBox="-531 928 216 146" style="enable-background:new -531 928 216 146;" xml:space="preserve">
<style type="text/css">
	.st0{fill:#FFFFFF;}
</style>
<g>
	<path class="st0" d="M-482,979c1.8,1.3,7.4,5.2,16.7,11.6c9.3,6.4,16.4,11.4,21.3,14.9c0.5,0.4,1.7,1.2,3.5,2.5
		c1.8,1.3,3.2,2.3,4.4,3.1c1.2,0.8,2.6,1.7,4.2,2.6c1.7,1,3.2,1.7,4.7,2.2c1.5,0.5,2.8,0.7,4.1,0.7h0.1h0.1c1.2,0,2.6-0.2,4.1-0.7
		c1.5-0.5,3-1.2,4.7-2.2c1.7-1,3.1-1.9,4.2-2.6s2.6-1.8,4.4-3.1c1.8-1.3,2.9-2.1,3.5-2.5c5-3.5,17.7-12.3,38.1-26.5
		c4-2.8,7.3-6.1,9.9-10c2.7-3.9,4-8,4-12.3c0-3.6-1.3-6.7-3.9-9.2c-2.6-2.6-5.6-3.8-9.2-3.8H-483c-4.2,0-7.4,1.4-9.7,4.2
		c-2.3,2.8-3.4,6.4-3.4,10.6c0,3.4,1.5,7.1,4.5,11.1S-485.4,976.7-482,979z"/>
	<path class="st0" d="M-358.1,987.7c-17.8,12.1-31.3,21.4-40.6,28.1c-3.1,2.3-5.6,4.1-7.5,5.3c-1.9,1.3-4.5,2.6-7.7,3.9
		c-3.2,1.3-6.2,2-9,2h-0.1h-0.1c-2.8,0-5.8-0.7-9-2c-3.2-1.3-5.8-2.6-7.7-3.9c-1.9-1.3-4.4-3.1-7.5-5.3
		c-7.3-5.4-20.8-14.7-40.5-28.1c-3.1-2.1-5.8-4.4-8.2-7.1v64.7c0,3.6,1.3,6.7,3.8,9.2c2.6,2.6,5.6,3.8,9.2,3.8H-363
		c3.6,0,6.7-1.3,9.2-3.8c2.6-2.6,3.8-5.6,3.8-9.2v-64.7C-352.3,983.2-355.1,985.6-358.1,987.7z"/>
</g>
</svg>
